<?xml version="1.0" encoding="UTF-8" ?>
<!DOCTYPE svg PUBLIC "-//W3C//DTD SVG 1.1//EN" "http://www.w3.org/Graphics/SVG/1.1/DTD/svg11.dtd">
<svg width="738pt" height="738pt" viewBox="0 0 738 738" version="1.1" xmlns="http://www.w3.org/2000/svg">
<g id="#006242ff">
<path fill="#006242" opacity="1.00" d=" M 336.62 9.85 C 375.57 6.54 415.06 9.27 453.11 18.28 C 496.81 29.01 538.49 47.89 575.34 73.72 C 605.91 95.27 633.09 121.60 655.76 151.34 C 678.85 181.88 696.99 216.13 709.44 252.32 C 725.53 298.59 731.06 348.26 727.42 397.02 C 721.67 476.95 687.33 554.27 632.86 612.91 C 606.59 641.23 575.91 665.51 541.99 684.05 C 504.51 704.55 463.48 718.90 421.10 724.76 C 375.90 731.25 329.48 729.32 285.00 718.99 C 243.71 709.00 204.20 691.71 168.83 668.18 C 137.31 647.16 109.26 621.04 85.70 591.39 C 58.58 557.09 37.92 517.74 24.72 476.06 C 15.08 445.98 10.05 414.51 8.76 382.97 C 7.21 340.40 12.55 297.41 26.01 256.92 C 40.52 212.94 63.33 171.62 93.33 136.30 C 123.56 100.65 160.57 70.67 202.11 49.16 C 243.78 27.38 289.71 13.63 336.62 9.85 M 343.04 23.40 C 273.05 28.19 204.88 55.35 150.54 99.68 C 93.92 145.46 52.28 209.50 33.85 279.97 C 33.56 281.33 33.55 282.70 33.80 284.08 C 85.53 283.89 137.27 284.05 189.00 284.00 C 189.00 283.25 189.00 281.75 189.00 281.00 C 138.24 280.97 87.48 281.06 36.72 280.95 C 53.78 215.96 90.53 156.33 140.92 111.88 C 191.73 66.52 256.42 36.92 324.01 28.36 C 374.99 21.66 427.49 26.58 476.30 42.76 C 515.22 55.60 551.75 75.58 583.63 101.32 C 641.08 147.42 683.12 212.48 701.00 283.98 C 650.34 284.03 599.67 283.99 549.00 284.00 C 549.00 284.75 549.00 286.25 549.00 287.00 C 600.68 287.01 652.35 286.99 704.03 287.01 C 704.08 286.10 704.18 284.27 704.23 283.36 C 703.66 283.43 702.51 283.56 701.94 283.63 C 702.38 283.48 703.25 283.20 703.69 283.06 C 703.48 280.09 702.31 277.32 701.64 274.45 C 695.02 250.96 685.93 228.16 674.45 206.62 C 638.24 137.90 578.14 82.16 506.90 51.20 C 470.62 35.35 431.58 25.83 392.07 23.23 C 375.78 21.67 359.32 21.78 343.04 23.40 M 307.95 110.82 C 291.99 123.85 275.75 136.55 259.96 149.78 C 296.74 127.40 333.42 104.80 370.11 82.26 C 393.52 97.00 416.76 112.00 440.11 126.84 C 452.34 134.48 464.30 142.60 476.71 149.94 C 444.23 122.90 412.11 95.40 379.77 68.18 C 376.79 65.50 373.38 63.25 370.91 60.04 C 349.89 76.91 328.95 93.91 307.95 110.82 M 352.12 160.02 C 348.91 161.75 350.75 166.09 350.27 168.99 C 350.69 171.81 348.97 176.04 352.22 177.63 C 355.05 178.49 358.11 177.92 361.04 178.08 C 363.44 178.02 366.72 178.57 368.10 176.02 C 368.46 171.37 368.31 166.68 368.19 162.03 C 367.46 159.35 364.23 159.50 362.03 159.53 C 358.74 159.74 355.29 159.06 352.12 160.02 M 373.27 160.29 C 371.99 161.03 371.77 162.57 371.87 163.91 C 371.92 167.64 371.76 171.37 371.94 175.09 C 372.00 177.10 374.22 178.12 375.99 178.05 C 379.35 178.09 382.72 178.14 386.08 178.03 C 387.76 178.06 389.88 176.97 389.85 175.06 C 389.96 170.69 390.02 166.31 389.80 161.95 C 388.65 158.78 384.64 159.67 382.02 159.53 C 379.12 159.78 375.95 158.92 373.27 160.29 M 352.14 181.18 C 348.90 182.84 350.74 187.19 350.27 190.06 C 350.61 193.09 348.87 198.13 353.04 199.09 C 357.01 199.35 361.01 199.27 364.99 199.15 C 366.56 199.09 368.41 197.77 368.24 196.03 C 368.29 191.70 368.41 187.35 368.17 183.03 C 367.02 180.14 363.45 180.77 360.98 180.70 C 358.05 180.89 354.97 180.27 352.14 181.18 M 373.29 181.45 C 372.37 182.03 371.92 182.85 371.92 183.91 C 371.83 187.97 371.82 192.03 371.93 196.09 C 371.85 198.15 374.18 199.33 375.99 199.21 C 379.32 199.25 382.65 199.27 385.98 199.20 C 387.77 199.30 389.98 198.05 389.87 196.04 C 389.89 191.68 390.12 187.28 389.73 182.94 C 388.47 179.97 384.63 180.85 382.07 180.70 C 379.17 180.96 375.96 180.07 373.29 181.45 M 264.67 209.06 C 265.18 217.41 270.42 224.49 275.56 230.74 C 274.30 232.79 273.70 235.26 274.47 237.62 C 276.45 243.99 281.97 248.79 288.09 251.11 C 286.29 253.93 285.79 257.50 287.52 260.50 C 291.81 268.26 300.11 272.96 308.39 275.36 C 323.56 279.44 339.67 277.20 354.47 272.65 C 356.72 271.84 359.22 271.50 361.19 270.04 C 348.77 269.47 336.85 265.31 325.86 259.70 C 321.01 260.79 316.12 263.07 310.93 262.49 C 309.31 262.30 309.02 260.48 309.15 259.19 C 313.15 258.94 317.20 258.62 320.95 257.08 C 313.99 252.95 307.29 248.39 301.01 243.29 C 297.60 244.08 293.99 244.53 290.59 243.51 C 288.99 243.17 288.58 241.46 289.08 240.10 C 291.67 240.41 294.29 240.64 296.91 240.42 C 293.95 236.21 289.38 233.28 286.53 228.92 C 285.63 226.82 288.25 226.19 289.27 227.70 C 292.47 231.33 295.82 234.86 299.49 238.04 C 299.72 237.91 300.18 237.67 300.41 237.54 C 301.01 234.37 300.49 231.14 300.42 227.94 C 301.25 226.32 303.62 227.57 303.75 229.03 C 304.52 233.06 304.29 237.23 303.28 241.20 C 309.63 246.37 316.40 251.07 323.64 254.92 C 323.94 249.90 323.06 244.95 322.40 240.01 C 322.25 237.81 325.30 238.84 325.59 240.25 C 326.92 245.65 327.31 251.27 327.06 256.83 C 338.17 262.50 350.39 266.61 363.00 266.48 C 359.91 264.44 356.50 262.84 353.84 260.21 C 345.67 253.05 340.66 243.10 336.82 233.11 C 334.52 227.50 330.91 221.66 324.96 219.44 C 321.61 218.13 318.26 219.93 315.84 222.17 C 312.18 217.65 308.86 212.18 302.99 210.29 C 299.42 208.97 296.03 211.30 293.55 213.65 C 288.28 207.83 282.01 201.86 273.98 200.52 C 269.01 199.70 264.15 203.99 264.67 209.06 M 454.05 203.04 C 449.39 205.82 445.15 209.38 441.76 213.62 C 439.26 211.63 436.34 209.17 432.89 210.11 C 426.80 211.76 422.87 217.22 419.60 222.25 C 416.98 220.10 413.62 218.04 410.13 219.46 C 402.87 222.30 399.39 229.99 396.85 236.83 C 392.01 248.96 384.10 260.54 372.10 266.47 C 384.73 266.64 396.97 262.51 408.11 256.84 C 407.93 251.33 408.21 245.76 409.54 240.40 C 409.70 238.79 412.82 237.96 412.78 240.06 C 412.08 244.97 411.24 249.90 411.55 254.88 C 418.79 251.08 425.55 246.37 431.87 241.20 C 430.88 237.21 430.72 233.03 431.40 228.99 C 431.73 227.65 433.21 226.71 434.51 227.43 C 434.96 231.12 433.92 234.91 435.00 238.58 C 438.48 235.58 441.81 232.39 444.79 228.90 C 445.79 227.79 447.07 225.96 448.65 227.36 C 449.23 229.13 447.43 230.30 446.53 231.57 C 443.95 234.71 440.57 237.11 438.12 240.36 C 440.79 240.68 443.48 240.41 446.14 240.09 C 446.55 241.46 446.17 243.23 444.55 243.52 C 441.18 244.50 437.62 244.14 434.29 243.26 C 428.20 248.05 421.88 252.54 415.20 256.47 C 415.20 256.72 415.21 257.24 415.21 257.49 C 418.67 258.73 422.38 258.93 426.02 259.16 C 426.09 260.53 425.83 262.47 424.03 262.51 C 419.16 262.68 414.30 261.50 409.89 259.44 C 398.67 265.16 386.54 269.44 373.86 270.10 C 385.55 274.98 398.36 277.45 411.04 277.49 C 423.66 277.38 437.38 273.76 445.65 263.61 C 448.65 260.22 449.94 254.99 447.05 251.13 C 453.32 248.74 459.07 243.75 460.82 237.09 C 461.55 234.88 460.69 232.67 459.62 230.76 C 464.41 224.95 469.07 218.51 470.37 210.92 C 471.01 207.44 469.89 203.15 466.45 201.54 C 462.47 199.32 457.72 200.96 454.05 203.04 M 94.06 333.15 C 88.47 335.33 83.60 339.94 82.13 345.88 C 80.50 352.04 81.85 359.69 87.48 363.41 C 95.11 368.41 104.68 367.69 113.23 369.78 C 115.61 370.42 118.38 371.47 119.21 374.05 C 119.98 376.79 118.45 379.67 116.13 381.13 C 112.30 383.60 107.40 383.84 103.03 382.94 C 99.04 382.09 95.21 379.28 94.49 375.06 C 90.53 374.86 86.56 374.99 82.60 374.96 C 82.60 377.31 82.41 379.68 82.77 382.02 C 85.21 387.86 91.08 391.41 96.92 393.13 C 104.46 395.23 112.74 394.98 120.02 392.04 C 125.75 389.73 130.78 385.02 132.32 378.89 C 133.84 373.07 132.98 365.93 128.04 361.96 C 122.69 357.74 115.64 357.13 109.14 356.23 C 105.02 355.58 100.54 355.48 96.97 353.09 C 94.31 351.21 94.70 347.02 97.06 345.06 C 100.98 341.73 106.70 341.58 111.48 342.73 C 114.88 343.54 117.84 345.93 118.77 349.39 C 122.68 349.38 126.58 349.38 130.49 349.38 C 130.39 346.93 130.86 344.40 130.14 342.03 C 127.80 337.06 122.60 334.24 117.56 332.66 C 109.95 330.46 101.52 330.23 94.06 333.15 M 453.56 331.76 C 444.86 333.38 436.75 338.70 432.50 346.56 C 425.00 360.23 427.98 379.85 441.41 388.76 C 454.93 397.61 475.16 396.47 486.46 384.45 C 497.99 371.76 496.96 349.34 483.56 338.35 C 475.33 331.54 463.85 329.80 453.56 331.76 M 559.37 339.42 C 553.82 346.25 553.86 358.24 561.58 363.47 C 570.06 369.08 580.87 367.22 590.04 370.78 C 593.45 371.94 594.41 376.48 592.19 379.18 C 589.12 383.05 583.65 383.74 579.04 383.28 C 574.40 382.86 569.34 380.07 568.52 375.10 C 564.55 374.82 560.57 375.01 556.60 374.96 C 556.56 376.30 556.55 377.64 556.56 378.98 C 556.12 383.11 559.22 386.47 562.22 388.85 C 570.03 394.62 580.57 395.62 589.83 393.43 C 596.87 391.76 603.69 387.08 606.02 379.96 C 608.02 373.71 607.18 365.64 601.51 361.54 C 595.30 357.12 587.35 356.93 580.09 355.83 C 576.76 355.25 573.04 354.95 570.43 352.60 C 567.89 350.11 569.32 345.74 572.20 344.18 C 576.98 341.36 583.26 341.44 588.22 343.81 C 590.56 344.84 591.95 347.06 592.78 349.39 C 596.68 349.38 600.58 349.38 604.48 349.38 C 604.37 346.22 605.23 342.58 602.94 339.96 C 598.50 334.15 590.92 331.89 583.93 331.18 C 575.17 330.32 565.17 332.26 559.37 339.42 M 32.91 342.98 C 28.56 349.03 24.87 356.45 26.34 364.12 C 27.06 371.00 31.68 377.49 38.60 379.19 C 38.50 382.20 38.59 385.22 38.52 388.24 C 39.63 388.94 41.35 389.42 42.19 388.03 C 42.48 378.04 42.12 368.04 42.35 358.06 C 42.07 356.32 43.95 356.38 45.10 356.00 C 45.91 357.18 46.38 358.50 46.20 359.97 C 46.14 366.35 46.19 372.74 46.16 379.13 C 55.73 377.62 60.08 366.88 59.22 358.20 C 57.46 347.72 50.13 339.51 42.91 332.23 C 39.09 335.31 35.80 339.01 32.91 342.98 M 148.41 333.18 C 143.11 350.20 137.14 367.03 131.72 384.02 C 131.23 386.81 131.59 389.67 131.51 392.50 C 135.93 392.43 140.35 392.68 144.77 392.34 C 145.64 389.17 146.63 386.04 147.77 382.96 C 155.55 383.03 163.34 383.02 171.12 382.96 C 172.23 386.06 173.25 389.19 174.13 392.37 C 178.52 392.65 182.93 392.44 187.33 392.49 C 187.21 389.03 187.86 385.42 186.60 382.10 C 181.07 365.74 175.78 349.31 170.21 332.97 C 162.94 333.15 155.66 332.75 148.41 333.18 M 191.00 333.00 C 191.08 352.86 190.83 372.72 191.13 392.58 C 208.14 392.35 225.16 392.65 242.17 392.43 C 243.12 389.29 244.18 386.18 245.13 383.04 C 253.02 382.99 260.90 382.92 268.78 383.08 C 269.70 386.22 270.75 389.32 271.73 392.45 C 276.07 392.56 280.43 392.45 284.78 392.54 C 284.75 389.48 285.21 386.36 284.49 383.35 C 278.95 366.58 273.31 349.84 267.83 333.05 C 260.58 332.95 253.33 333.01 246.09 333.01 C 240.99 348.62 235.64 364.15 230.66 379.79 C 222.43 379.78 214.19 379.74 205.96 379.81 C 205.71 364.22 205.91 348.61 205.85 333.01 C 200.90 332.99 195.95 333.00 191.00 333.00 M 288.51 333.00 C 288.49 352.83 288.50 372.66 288.50 392.50 C 296.33 392.49 304.16 392.53 311.99 392.48 C 320.85 392.40 330.10 389.91 336.73 383.77 C 348.36 373.21 348.43 352.71 336.98 342.01 C 330.36 335.70 321.00 333.11 312.04 333.02 C 304.19 332.97 296.35 333.02 288.51 333.00 M 370.51 333.00 C 370.49 352.83 370.50 372.66 370.50 392.49 C 375.45 392.50 380.39 392.51 385.34 392.49 C 385.41 384.14 385.23 375.79 385.44 367.45 C 393.29 367.57 401.14 367.46 409.00 367.51 C 409.00 375.83 409.00 384.16 409.00 392.49 C 413.96 392.48 418.92 392.56 423.88 392.44 C 423.82 372.64 423.84 352.83 423.87 333.03 C 418.91 332.97 413.96 333.01 409.00 333.00 C 408.93 340.57 409.12 348.15 408.90 355.72 C 401.05 355.57 393.20 355.69 385.35 355.65 C 385.34 348.10 385.35 340.55 385.34 333.00 C 380.40 333.00 375.45 333.00 370.51 333.00 M 498.13 333.03 C 498.19 344.69 498.13 356.36 498.16 368.03 C 498.11 375.07 500.63 382.27 505.76 387.22 C 514.25 395.42 528.06 396.55 538.43 391.44 C 546.78 387.35 551.83 378.19 551.94 369.04 C 552.08 357.03 551.96 345.01 552.00 333.00 C 547.04 333.00 542.09 332.98 537.14 333.02 C 537.17 344.34 537.15 355.66 537.15 366.99 C 537.18 371.47 535.81 376.30 532.22 379.24 C 528.40 382.47 522.39 382.58 518.45 379.51 C 514.64 376.60 512.94 371.66 513.01 367.00 C 512.98 355.66 513.01 344.33 513.00 333.00 C 508.04 333.01 503.08 332.97 498.13 333.03 M 611.50 333.00 C 611.50 352.83 611.50 372.66 611.50 392.50 C 625.67 392.50 639.83 392.50 654.00 392.50 C 654.00 388.54 654.00 384.58 654.00 380.62 C 644.70 380.67 635.39 380.50 626.09 380.72 C 625.67 376.25 625.69 371.72 626.09 367.26 C 634.07 367.45 642.05 367.30 650.04 367.34 C 650.04 363.89 650.04 360.45 650.03 357.00 C 641.97 356.99 633.91 357.01 625.85 357.00 C 625.84 352.96 625.84 348.92 625.85 344.89 C 635.01 344.88 644.16 344.87 653.32 344.89 C 653.36 340.93 653.34 336.96 653.34 333.00 C 639.40 333.00 625.45 333.00 611.50 333.00 M 691.96 332.40 C 684.38 340.04 676.80 348.91 675.50 360.01 C 675.81 367.90 679.58 377.27 688.21 378.97 C 688.40 381.98 688.31 385.00 688.38 388.02 C 688.76 388.46 689.53 389.34 689.91 389.78 C 691.39 389.21 692.30 387.61 692.14 386.05 C 692.19 376.70 692.04 367.34 692.20 357.99 C 691.76 355.57 696.26 355.61 695.80 358.02 C 695.98 365.09 695.78 372.17 695.89 379.24 C 700.02 378.27 703.95 375.86 706.03 372.05 C 708.06 369.07 708.15 365.40 709.28 362.09 C 709.30 361.28 709.32 359.67 709.33 358.86 C 707.56 350.25 702.75 342.59 696.63 336.39 C 695.15 334.98 693.94 333.13 691.96 332.40 M 550.51 439.00 C 550.51 439.75 550.51 441.25 550.51 442.00 C 601.55 442.00 652.59 442.00 703.63 442.00 C 697.69 469.32 688.30 495.88 675.90 520.93 C 642.14 589.11 585.08 645.43 516.36 678.11 C 440.70 714.59 351.46 721.48 271.01 697.46 C 194.94 675.20 127.52 625.33 83.50 559.47 C 59.85 524.37 43.01 484.81 33.62 443.56 C 85.02 443.50 136.43 443.39 187.84 443.61 C 187.87 442.54 187.90 441.48 187.93 440.42 C 135.40 440.62 82.86 440.41 30.33 440.53 C 30.41 443.09 30.94 445.60 31.60 448.08 C 39.03 479.59 50.92 510.05 66.85 538.24 C 105.38 606.93 168.06 661.72 241.39 690.49 C 274.71 703.66 310.11 711.57 345.87 713.82 C 367.56 716.04 389.41 714.44 411.00 711.97 C 474.93 704.31 536.45 678.07 586.35 637.41 C 644.91 590.15 687.39 523.31 704.91 450.09 C 705.75 446.60 706.76 443.13 706.80 439.52 C 705.54 439.23 704.27 439.06 703.00 438.99 C 652.17 439.02 601.34 438.99 550.51 439.00 M 286.52 520.63 C 280.70 521.77 275.33 525.20 272.16 530.25 C 267.62 537.61 267.62 547.54 272.22 554.87 C 279.78 566.67 298.09 568.17 308.54 559.46 C 318.11 551.43 318.48 535.09 309.53 526.46 C 303.56 520.66 294.49 518.93 286.52 520.63 M 427.47 520.64 C 421.46 521.82 415.93 525.48 412.82 530.80 C 408.64 538.11 408.73 547.71 413.21 554.86 C 420.76 566.66 439.08 568.17 449.53 559.47 C 459.10 551.44 459.48 535.10 450.54 526.47 C 444.56 520.65 435.46 518.92 427.47 520.64 M 239.50 524.08 C 239.54 536.72 239.40 549.38 239.58 562.03 C 240.16 565.02 243.90 563.69 246.02 564.03 C 248.27 563.74 251.23 564.78 252.92 562.83 C 253.64 558.72 253.02 554.48 253.22 550.32 C 257.19 550.30 261.17 550.47 265.13 550.28 C 267.66 549.82 266.92 546.76 267.09 544.94 C 266.89 542.96 267.79 539.49 265.00 539.08 C 261.06 538.84 257.11 539.12 253.17 538.93 C 253.21 537.05 253.21 535.18 253.24 533.32 C 258.69 532.99 264.42 534.15 269.68 532.68 C 270.85 529.64 270.17 526.17 270.20 522.97 C 270.30 521.28 268.24 521.03 267.03 521.02 C 258.64 521.02 250.25 520.92 241.86 521.06 C 240.18 520.83 239.30 522.65 239.50 524.08 M 320.12 521.15 C 318.22 521.36 318.21 523.47 318.26 524.93 C 318.35 537.27 318.16 549.62 318.35 561.96 C 318.91 564.95 322.86 563.72 325.01 564.03 C 327.24 563.68 331.22 565.10 331.92 562.03 C 332.14 558.27 331.93 554.50 332.00 550.74 C 333.43 550.72 334.86 550.70 336.29 550.68 C 338.91 554.81 341.16 559.17 343.86 563.25 C 344.12 563.39 344.64 563.69 344.90 563.84 C 348.24 563.78 352.17 564.88 355.15 563.09 C 357.64 557.31 352.12 552.82 349.73 548.13 C 356.60 544.40 358.81 534.86 354.52 528.39 C 351.09 522.84 344.17 520.80 337.97 520.99 C 332.02 521.11 326.05 520.78 320.12 521.15 M 373.53 528.46 C 377.30 535.49 382.00 542.03 385.88 549.01 C 386.26 553.35 385.77 557.72 386.08 562.07 C 386.42 564.45 389.29 563.95 391.02 564.03 C 393.73 563.75 396.84 564.69 399.28 563.14 C 400.41 558.58 399.26 553.72 399.83 549.06 C 403.59 542.23 408.04 535.78 411.79 528.94 C 412.41 526.34 413.29 520.83 409.14 521.01 C 406.14 521.45 401.53 519.54 399.87 522.97 C 397.27 527.15 395.60 531.99 392.44 535.76 C 390.10 530.84 387.33 526.11 384.48 521.49 C 381.43 520.60 378.15 520.98 375.03 521.15 C 372.34 522.42 373.50 526.10 373.53 528.46 M 460.25 521.28 C 458.57 521.72 458.76 523.67 458.75 525.02 C 458.84 532.32 458.67 539.63 458.83 546.93 C 459.05 553.10 462.39 559.14 467.78 562.27 C 475.09 566.38 485.01 565.86 491.53 560.44 C 496.01 556.73 498.03 550.78 498.00 545.09 C 498.00 538.04 498.02 530.98 497.99 523.93 C 498.12 522.66 497.44 521.16 496.03 521.07 C 492.99 520.91 489.95 520.94 486.92 521.06 C 485.76 521.03 484.28 521.72 484.35 523.08 C 484.11 530.70 484.42 538.35 484.22 545.98 C 484.29 549.31 481.68 553.02 478.04 552.63 C 474.68 552.47 472.53 548.97 472.55 545.87 C 472.35 538.28 472.67 530.68 472.42 523.09 C 472.48 521.89 471.33 520.97 470.19 521.07 C 466.88 521.04 463.50 520.68 460.25 521.28 M 407.43 586.54 C 402.11 587.56 397.04 590.32 393.75 594.69 C 388.08 602.19 387.79 613.22 392.86 621.09 C 401.09 633.56 421.55 634.32 431.27 623.25 C 438.57 614.74 438.21 600.65 430.26 592.68 C 424.40 586.82 415.40 584.96 407.43 586.54 M 260.35 589.05 C 260.16 601.37 260.35 613.71 260.26 626.04 C 260.20 627.50 260.22 629.57 262.10 629.85 C 268.70 630.21 275.33 629.89 281.94 630.01 C 287.06 630.07 292.73 629.29 296.54 625.53 C 301.48 620.84 300.98 611.95 295.72 607.70 C 300.46 602.76 299.74 593.86 293.85 590.15 C 286.22 585.11 276.61 587.61 268.05 586.99 C 265.61 587.37 261.14 585.78 260.35 589.05 M 299.56 594.59 C 303.39 601.55 308.00 608.07 311.88 615.01 C 312.23 619.02 311.85 623.05 312.01 627.07 C 311.87 628.31 312.53 629.81 313.95 629.92 C 316.98 630.09 320.03 630.05 323.07 629.94 C 324.22 629.93 325.63 629.34 325.65 628.01 C 325.96 623.68 325.45 619.32 325.85 615.01 C 329.63 608.20 334.05 601.76 337.79 594.94 C 338.41 592.33 339.29 586.81 335.12 587.01 C 332.12 587.45 327.51 585.53 325.86 588.98 C 323.49 593.29 321.18 597.64 318.81 601.96 C 315.99 597.18 313.50 592.20 310.52 587.52 C 307.46 586.59 304.11 586.93 300.96 587.20 C 298.32 588.50 299.49 592.23 299.56 594.59 M 353.22 594.91 C 357.02 601.65 361.42 608.04 365.25 614.76 C 365.96 619.16 365.17 623.69 365.57 628.14 C 366.33 631.00 369.90 629.69 372.04 630.03 C 374.27 629.74 377.20 630.76 378.90 628.85 C 379.76 624.33 378.83 619.63 379.33 615.05 C 382.87 608.75 386.82 602.67 390.50 596.45 C 392.15 593.96 392.07 590.55 391.16 587.84 C 389.41 586.52 387.06 587.12 385.04 586.96 C 383.24 587.18 380.58 586.39 379.66 588.47 C 377.12 592.93 374.85 597.53 372.25 601.96 C 369.62 597.19 367.03 592.38 364.17 587.75 C 361.44 586.30 357.96 587.16 354.96 587.08 C 351.70 587.95 352.88 592.47 353.22 594.91 M 440.17 587.31 C 438.59 587.80 438.75 589.72 438.75 591.03 C 438.81 597.99 438.73 604.95 438.79 611.91 C 438.85 616.48 440.30 621.15 443.39 624.59 C 451.78 634.39 470.22 632.77 475.89 620.83 C 479.56 612.74 477.43 603.60 478.00 595.03 C 477.68 592.34 479.41 586.82 475.05 587.01 C 471.66 587.48 467.16 585.72 464.51 588.30 C 463.94 595.49 464.43 602.76 464.29 609.98 C 464.52 613.24 463.51 617.27 460.04 618.43 C 456.46 619.62 453.01 616.48 452.65 613.02 C 452.23 605.06 452.72 597.08 452.43 589.12 C 452.47 587.90 451.28 586.88 450.09 587.06 C 446.79 587.05 443.41 586.66 440.17 587.31 Z" />
<path fill="#006242" opacity="1.00" d=" M 455.44 344.65 C 462.49 342.37 471.10 344.32 475.63 350.43 C 480.89 357.59 480.86 368.39 475.36 375.42 C 469.16 383.27 456.15 383.88 448.99 377.04 C 439.47 367.98 442.21 348.66 455.44 344.65 Z" />
<path fill="#006242" opacity="1.00" d=" M 303.00 344.51 C 309.57 344.59 316.74 343.70 322.60 347.38 C 333.23 353.63 333.40 371.40 322.94 377.91 C 317.05 381.81 309.70 380.91 303.00 381.00 C 303.00 368.83 303.00 356.67 303.00 344.51 Z" />
<path fill="#006242" opacity="1.00" d=" M 159.36 345.82 C 162.59 354.58 165.31 363.53 168.34 372.37 C 162.43 372.38 156.52 372.38 150.62 372.37 C 153.52 363.52 156.49 354.68 159.36 345.82 Z" />
<path fill="#006242" opacity="1.00" d=" M 256.77 345.97 C 260.21 354.59 262.86 363.58 265.75 372.42 C 259.90 372.35 254.04 372.36 248.18 372.41 C 250.89 363.55 254.02 354.82 256.77 345.97 Z" />
<path fill="#006242" opacity="1.00" d=" M 427.42 522.62 C 434.68 521.06 442.96 522.23 448.61 527.35 C 457.55 535.25 457.14 551.32 447.56 558.55 C 437.36 566.27 419.78 564.12 413.86 552.05 C 410.46 545.06 411.05 536.10 415.80 529.87 C 418.63 526.13 422.89 523.66 427.42 522.62 M 430.51 530.70 C 422.51 532.11 419.24 542.33 423.12 548.92 C 426.58 555.39 436.37 556.46 441.58 551.54 C 446.32 547.05 446.45 538.67 442.03 533.92 C 439.15 530.84 434.54 529.79 430.51 530.70 Z" />
<path fill="#006242" opacity="1.00" d=" M 375.30 523.06 C 377.90 523.02 380.51 522.97 383.12 522.96 C 386.59 528.46 389.33 534.41 392.96 539.80 C 395.98 534.19 399.04 528.61 402.07 523.01 C 404.79 522.99 407.50 522.99 410.22 523.01 C 410.09 525.13 410.73 527.54 409.36 529.40 C 405.60 535.67 401.69 541.85 398.04 548.19 C 397.40 552.72 397.95 557.38 397.80 561.97 C 394.53 562.01 391.27 562.01 388.00 562.00 C 387.33 556.36 389.76 549.80 385.84 545.01 C 382.63 539.89 379.51 534.71 376.29 529.59 C 374.84 527.72 375.43 525.24 375.30 523.06 Z" />
<path fill="#006242" opacity="1.00" d=" M 460.72 523.00 C 463.94 522.99 467.16 523.03 470.38 522.94 C 470.72 530.60 470.30 538.27 470.57 545.93 C 470.57 550.41 474.23 555.08 479.02 554.60 C 483.35 554.32 486.20 550.00 486.18 545.93 C 486.28 538.30 486.21 530.67 486.20 523.04 C 489.46 522.98 492.73 522.98 496.00 523.00 C 495.98 530.71 496.04 538.41 495.98 546.12 C 495.94 549.79 494.84 553.50 492.60 556.45 C 485.87 565.38 470.30 565.25 463.85 556.07 C 461.57 552.86 460.67 548.88 460.72 545.00 C 460.72 537.67 460.72 530.34 460.72 523.00 Z" />
<path fill="#006242" opacity="1.00" d=" M 289.52 532.69 C 293.27 531.75 297.73 532.70 300.16 535.88 C 303.28 540.01 303.02 546.57 299.20 550.18 C 295.18 553.77 288.10 553.50 284.68 549.20 C 280.36 543.97 282.50 534.31 289.52 532.69 Z" />
<path fill="#006242" opacity="1.00" d=" M 332.05 532.22 C 335.43 532.49 339.41 531.38 342.22 533.82 C 343.60 535.54 343.12 538.37 341.01 539.27 C 338.21 540.54 334.98 539.82 332.01 540.00 C 331.96 537.40 332.01 534.81 332.05 532.22 Z" />
<path fill="#006242" opacity="1.00" d=" M 429.19 533.14 C 433.39 531.43 438.97 532.44 441.54 536.42 C 444.66 541.12 443.64 548.65 438.43 551.44 C 433.52 554.14 426.34 552.31 424.26 546.84 C 422.30 541.92 423.96 535.25 429.19 533.14 Z" />
<path fill="#006242" opacity="1.00" d=" M 406.56 588.71 C 414.02 586.98 422.62 588.19 428.37 593.58 C 437.34 601.82 436.46 618.41 426.17 625.21 C 417.11 631.17 403.42 630.33 396.03 622.05 C 390.36 615.53 389.72 605.41 393.90 597.96 C 396.56 593.24 401.35 589.97 406.56 588.71 M 410.46 596.61 C 402.34 597.70 398.73 607.87 402.45 614.61 C 405.59 620.98 414.79 622.43 420.24 618.25 C 426.08 613.81 426.24 603.92 420.73 599.15 C 417.94 596.76 414.02 595.95 410.46 596.61 Z" />
<path fill="#006242" opacity="1.00" d=" M 354.84 589.01 C 357.49 588.96 360.15 589.00 362.81 589.05 C 365.99 594.70 369.05 600.42 372.46 605.93 C 375.29 600.28 378.58 594.86 381.36 589.18 C 384.15 588.88 386.96 588.98 389.77 589.06 C 389.59 591.04 390.19 593.27 389.07 595.05 C 385.21 601.51 381.16 607.88 377.42 614.41 C 377.06 618.92 377.39 623.47 377.27 627.99 C 374.02 628.00 370.76 628.00 367.51 628.00 C 367.39 623.51 367.70 619.00 367.38 614.52 C 363.65 608.05 359.56 601.79 355.69 595.40 C 354.31 593.55 354.97 591.14 354.84 589.01 Z" />
<path fill="#006242" opacity="1.00" d=" M 440.72 589.00 C 444.02 589.04 447.32 588.84 450.61 589.18 C 450.41 596.76 450.45 604.34 450.57 611.92 C 450.56 616.38 454.19 621.05 458.97 620.60 C 463.30 620.36 466.18 616.06 466.17 612.00 C 466.29 604.34 466.21 596.69 466.20 589.04 C 469.46 588.98 472.73 588.98 476.00 589.00 C 475.98 596.66 476.04 604.32 475.98 611.97 C 476.07 618.15 472.66 624.38 467.01 627.09 C 460.44 630.23 451.86 629.64 446.27 624.77 C 442.63 621.60 440.79 616.75 440.74 611.99 C 440.68 604.33 440.74 596.67 440.72 589.00 Z" />
<path fill="#006242" opacity="1.00" d=" M 274.04 598.21 C 277.19 598.41 280.45 597.85 283.54 598.65 C 285.06 599.02 285.62 601.27 284.02 601.99 C 280.88 603.25 277.34 602.41 274.04 602.69 C 274.04 601.19 274.05 599.70 274.04 598.21 Z" />
<path fill="#006242" opacity="1.00" d=" M 408.30 599.32 C 412.43 597.41 418.11 598.26 420.84 602.12 C 423.70 606.18 423.44 612.32 419.97 615.95 C 416.11 619.64 409.12 619.62 405.51 615.58 C 401.27 610.90 402.37 602.10 408.30 599.32 Z" />
<path fill="#006242" opacity="1.00" d=" M 273.99 613.00 C 277.27 613.08 280.59 612.74 283.84 613.26 C 285.94 613.70 287.09 616.85 284.91 617.97 C 281.53 619.49 277.63 618.44 274.04 618.77 C 274.00 616.84 274.01 614.92 273.99 613.00 Z" />
</g>
<g id="#eaf7feff">
</g>
</svg>
