<?xml version="1.0" encoding="UTF-8" ?>
<!DOCTYPE svg PUBLIC "-//W3C//DTD SVG 1.1//EN" "http://www.w3.org/Graphics/SVG/1.1/DTD/svg11.dtd">
<svg width="2717pt" height="716pt" viewBox="0 0 2717 716" version="1.1" xmlns="http://www.w3.org/2000/svg">
<g id="#006242ff">
<path fill="#006242" opacity="1.00" d=" M 0.00 0.00 L 2717.00 0.00 L 2717.00 70.00 C 2103.33 70.00 1489.67 70.00 876.00 70.00 C 875.99 72.00 875.99 74.00 876.00 76.00 C 1489.67 76.00 2103.33 76.00 2717.00 76.00 L 2717.00 404.00 C 2103.33 404.00 1489.67 404.00 876.00 404.00 C 875.99 406.00 875.99 408.00 876.00 410.00 C 1489.67 410.00 2103.33 410.00 2717.00 410.00 L 2717.00 716.00 L 0.00 716.00 L 0.00 0.00 M 124.89 304.22 C 155.50 285.75 185.89 266.89 216.41 248.27 C 281.90 208.16 347.37 168.00 412.88 127.91 C 504.67 186.36 596.35 244.99 688.22 303.32 C 598.92 227.74 509.45 152.35 420.09 76.84 C 417.96 75.03 416.32 72.75 414.67 70.51 C 318.06 148.38 221.43 226.25 124.89 304.22 M 925.55 151.74 C 909.57 154.81 893.83 162.68 884.21 176.17 C 874.91 188.89 872.79 205.99 877.00 220.99 C 879.92 231.66 888.10 240.30 897.95 245.05 C 912.59 252.24 929.07 253.83 945.02 256.01 C 953.93 257.27 963.03 258.23 971.49 261.48 C 975.91 263.19 980.39 266.06 982.07 270.73 C 984.18 276.37 982.24 282.89 978.24 287.19 C 972.49 293.28 964.10 296.00 955.99 297.00 C 944.66 298.17 932.47 296.78 922.87 290.19 C 917.35 286.50 913.36 280.63 912.33 274.04 C 900.90 274.04 889.47 274.04 878.04 274.04 C 878.21 280.28 877.68 286.57 878.29 292.78 C 880.71 299.60 885.37 305.46 890.73 310.24 C 903.01 321.02 919.13 326.48 935.16 328.40 C 955.34 330.39 976.66 327.82 994.36 317.36 C 1007.36 309.77 1017.71 297.04 1020.68 282.09 C 1022.80 271.07 1022.23 259.09 1017.15 248.93 C 1012.47 239.55 1003.46 233.11 993.86 229.44 C 974.90 222.11 954.27 222.18 934.55 218.24 C 928.46 216.82 921.87 215.23 917.40 210.56 C 912.71 205.65 913.26 197.47 917.36 192.38 C 922.32 186.07 930.41 183.33 938.09 182.17 C 949.25 180.79 961.28 181.93 970.99 188.03 C 975.96 191.11 979.67 196.17 980.64 202.00 C 992.00 202.00 1003.36 202.00 1014.73 202.00 C 1014.69 196.65 1014.75 191.30 1014.73 185.95 C 1014.84 181.84 1012.23 178.35 1010.07 175.09 C 1001.48 163.73 987.99 157.34 974.55 153.68 C 958.62 149.56 941.74 148.77 925.55 151.74 M 1943.50 150.73 C 1923.27 153.03 1903.37 161.27 1888.78 175.70 C 1874.91 189.19 1866.44 207.73 1864.22 226.86 C 1861.58 247.94 1865.31 270.21 1876.68 288.36 C 1885.66 302.90 1899.45 314.24 1915.15 320.88 C 1932.91 328.50 1952.72 330.31 1971.81 328.24 C 1990.53 326.04 2008.95 318.87 2023.14 306.27 C 2037.02 294.17 2046.27 277.17 2049.72 259.14 C 2053.84 237.61 2051.29 214.44 2040.79 195.03 C 2032.59 179.80 2019.36 167.47 2003.81 159.97 C 1985.21 150.89 1963.91 148.53 1943.50 150.73 M 2244.53 165.39 C 2234.11 173.51 2226.87 185.70 2225.36 198.88 C 2224.28 209.45 2225.30 220.73 2230.94 229.98 C 2236.00 238.39 2244.52 244.11 2253.56 247.53 C 2268.72 253.32 2285.04 254.52 2300.97 256.83 C 2308.41 257.93 2315.99 259.06 2322.94 262.09 C 2327.03 263.88 2330.99 266.93 2332.30 271.39 C 2334.18 277.37 2331.72 284.03 2327.25 288.20 C 2321.25 293.81 2312.99 296.27 2304.99 297.11 C 2293.49 298.12 2281.10 296.45 2271.69 289.32 C 2266.72 285.68 2263.31 280.11 2262.34 274.04 C 2250.90 274.04 2239.47 274.04 2228.04 274.04 C 2228.06 279.38 2228.00 284.71 2228.03 290.04 C 2227.84 293.53 2229.86 296.55 2231.52 299.44 C 2240.16 313.22 2255.32 321.46 2270.66 325.63 C 2285.84 329.71 2301.95 329.99 2317.40 327.25 C 2333.11 324.31 2348.61 317.29 2359.24 305.03 C 2372.07 290.57 2375.36 268.66 2368.08 250.87 C 2362.81 238.43 2350.36 230.94 2337.85 227.37 C 2320.51 222.07 2302.21 221.78 2284.53 218.24 C 2278.24 216.77 2271.35 215.11 2266.94 210.04 C 2262.55 204.86 2263.49 196.74 2267.81 191.81 C 2273.06 185.67 2281.24 183.08 2289.01 182.05 C 2299.88 180.88 2311.52 182.08 2320.95 188.01 C 2325.94 191.09 2329.67 196.15 2330.64 202.00 C 2342.00 202.00 2353.36 202.01 2364.73 201.99 C 2364.52 195.73 2365.09 189.41 2364.45 183.18 C 2360.88 173.43 2352.56 166.27 2343.74 161.28 C 2327.71 152.52 2309.07 149.50 2290.97 150.06 C 2274.49 150.51 2257.63 155.08 2244.53 165.39 M 1066.53 155.00 C 1051.02 201.64 1035.53 248.28 1019.99 294.91 C 1019.15 297.56 1017.94 300.18 1018.00 303.02 C 1017.96 310.01 1018.02 317.01 1018.00 324.00 C 1030.46 324.00 1042.93 323.99 1055.40 324.00 C 1058.31 315.00 1061.28 306.01 1064.16 297.00 C 1086.39 297.00 1108.61 297.00 1130.84 297.00 C 1133.71 306.01 1136.70 314.98 1139.58 323.99 C 1152.05 324.01 1164.52 323.99 1177.00 324.00 C 1176.79 316.09 1177.41 308.12 1176.70 300.24 C 1160.75 251.79 1144.52 203.43 1128.47 155.01 C 1107.82 154.99 1087.18 155.00 1066.53 155.00 M 1188.00 155.00 C 1188.00 211.33 1188.00 267.67 1188.00 324.00 C 1236.48 323.99 1284.95 324.03 1333.43 323.98 C 1336.29 314.97 1339.29 306.01 1342.16 297.00 C 1364.39 297.00 1386.61 297.00 1408.84 297.00 C 1411.71 306.01 1414.70 314.98 1417.58 323.99 C 1430.05 324.01 1442.52 323.99 1455.00 324.00 C 1454.97 316.98 1455.03 309.97 1455.00 302.96 C 1455.03 300.49 1454.08 298.19 1453.34 295.89 C 1437.66 248.93 1422.12 201.92 1406.42 154.97 C 1385.79 155.04 1365.16 154.97 1344.53 155.01 C 1329.53 200.41 1314.18 245.71 1299.38 291.18 C 1299.37 290.29 1299.35 288.52 1299.34 287.64 C 1276.42 287.64 1253.51 287.64 1230.59 287.64 C 1230.63 243.43 1230.59 199.22 1230.61 155.01 C 1216.41 154.99 1202.20 155.00 1188.00 155.00 M 1465.00 155.00 C 1465.00 211.33 1465.00 267.67 1465.00 324.00 C 1485.68 324.00 1506.37 323.99 1527.06 324.00 C 1547.77 324.51 1569.00 320.69 1587.16 310.36 C 1601.39 302.36 1613.24 289.98 1619.98 275.04 C 1627.68 258.09 1629.09 238.62 1625.35 220.48 C 1621.84 203.52 1612.44 187.87 1599.02 176.90 C 1581.45 162.40 1558.47 155.83 1535.98 155.08 C 1512.32 154.90 1488.66 155.05 1465.00 155.00 M 1699.00 155.00 C 1699.00 211.33 1699.00 267.67 1699.00 324.00 C 1713.20 323.99 1727.41 324.01 1741.62 323.99 C 1741.60 300.33 1741.61 276.66 1741.61 253.00 C 1763.95 253.00 1786.30 252.99 1808.64 253.01 C 1808.63 276.67 1808.64 300.33 1808.64 324.00 C 1822.76 324.00 1836.88 324.00 1851.00 324.00 C 1851.00 267.67 1851.00 211.33 1851.00 155.00 C 1836.88 155.00 1822.76 155.00 1808.64 155.00 C 1808.61 176.41 1808.69 197.82 1808.59 219.22 C 1786.27 219.13 1763.94 219.21 1741.61 219.19 C 1741.61 197.79 1741.60 176.40 1741.62 155.01 C 1727.41 154.99 1713.20 155.00 1699.00 155.00 M 2062.00 155.00 C 2062.00 185.00 2062.00 215.00 2062.00 245.01 C 2062.03 252.69 2061.71 260.44 2063.14 268.03 C 2065.82 284.79 2074.22 300.78 2087.34 311.69 C 2101.59 323.73 2120.53 329.34 2139.02 329.00 C 2157.66 329.16 2176.69 323.18 2190.77 310.74 C 2207.46 296.30 2215.66 273.78 2215.01 252.00 C 2214.99 219.67 2215.00 187.33 2215.00 155.00 C 2200.88 155.00 2186.76 155.00 2172.64 155.00 C 2172.63 187.01 2172.65 219.03 2172.63 251.04 C 2172.85 264.40 2168.31 278.94 2156.98 286.94 C 2146.93 294.14 2132.54 294.49 2122.14 287.82 C 2109.34 279.69 2104.00 263.62 2104.60 249.04 C 2104.62 217.70 2104.60 186.35 2104.62 155.01 C 2090.41 154.99 2076.20 155.00 2062.00 155.00 M 2384.18 154.89 C 2384.18 211.30 2384.18 267.70 2384.18 324.11 C 2424.69 324.12 2465.21 324.13 2505.72 324.10 C 2505.72 312.75 2505.71 301.40 2505.72 290.05 C 2478.81 290.03 2451.91 290.05 2425.00 290.04 C 2424.99 277.36 2425.00 264.68 2425.00 252.00 C 2447.96 252.00 2470.91 252.00 2493.87 252.00 C 2493.86 242.13 2493.87 232.26 2493.86 222.39 C 2470.91 222.39 2447.95 222.39 2425.00 222.39 C 2424.99 211.25 2424.99 200.10 2425.00 188.96 C 2451.12 188.96 2477.24 188.96 2503.36 188.96 C 2503.36 177.60 2503.36 166.25 2503.36 154.89 C 2463.63 154.88 2423.91 154.88 2384.18 154.89 M 369.26 327.38 C 365.12 327.97 360.98 331.40 361.37 335.91 C 361.39 346.28 361.30 356.66 361.41 367.03 C 361.48 371.86 366.56 374.84 370.95 374.89 C 379.98 374.99 389.03 374.97 398.06 374.91 C 402.50 374.94 407.71 372.03 407.88 367.15 C 408.07 357.77 407.85 348.38 407.97 339.00 C 407.90 336.23 408.31 333.05 406.30 330.82 C 403.61 327.50 399.04 326.95 395.05 327.10 C 386.45 327.30 377.83 326.77 369.26 327.38 M 425.20 327.36 C 421.01 327.89 416.78 331.36 417.18 335.91 C 417.20 346.31 417.12 356.71 417.22 367.10 C 417.35 371.98 422.55 374.92 426.98 374.90 C 436.01 374.97 445.04 374.99 454.06 374.89 C 458.47 374.87 463.58 371.90 463.70 367.06 C 463.87 357.70 463.67 348.32 463.78 338.96 C 463.72 336.22 464.10 333.10 462.15 330.87 C 459.50 327.56 454.98 326.95 451.02 327.10 C 442.41 327.29 433.78 326.79 425.20 327.36 M 367.36 382.46 C 364.17 383.51 361.26 386.38 361.39 389.93 C 361.30 399.63 361.42 409.32 361.34 419.02 C 361.37 421.17 361.22 423.57 362.63 425.38 C 364.92 428.66 369.18 429.69 372.98 429.57 C 381.34 429.53 389.71 429.65 398.07 429.52 C 402.74 429.53 408.13 426.25 407.92 421.08 C 407.96 410.70 407.98 400.32 407.91 389.94 C 408.00 385.27 403.30 382.09 399.02 381.85 C 391.68 381.57 384.32 381.85 376.97 381.74 C 373.77 381.79 370.46 381.45 367.36 382.46 M 423.32 382.40 C 420.07 383.43 417.07 386.32 417.20 389.94 C 417.15 400.31 417.17 410.69 417.19 421.07 C 416.92 425.88 421.74 429.20 426.13 429.44 C 433.40 429.75 440.68 429.46 447.95 429.58 C 451.68 429.50 455.67 429.99 459.11 428.21 C 461.82 426.91 463.90 424.13 463.73 421.04 C 463.76 410.66 463.80 400.28 463.72 389.91 C 463.76 384.94 458.56 381.78 454.04 381.79 C 446.35 381.65 438.66 381.82 430.97 381.73 C 428.41 381.75 425.78 381.60 423.32 382.40 M 144.94 439.98 C 137.21 450.53 140.66 464.56 145.47 475.57 C 151.17 488.53 159.38 500.24 168.71 510.83 C 164.23 516.62 163.83 524.50 166.56 531.13 C 172.53 546.34 186.00 557.87 201.18 563.38 C 198.29 567.64 195.97 572.62 196.62 577.91 C 197.48 587.44 203.89 595.09 210.05 601.91 C 217.06 607.98 224.43 613.78 232.80 617.90 C 252.84 628.01 275.67 631.62 297.95 631.04 C 311.09 631.39 324.19 629.79 337.11 627.51 C 355.79 624.04 374.21 618.98 391.89 612.03 C 375.71 611.42 359.63 608.85 344.14 604.11 C 327.80 599.28 312.18 592.30 296.99 584.66 C 285.79 590.00 273.37 592.92 260.95 592.68 C 257.38 592.79 254.11 588.77 255.43 585.33 C 256.38 583.15 259.09 583.68 260.99 583.54 C 269.47 583.60 277.89 581.75 285.75 578.59 C 267.62 568.03 250.33 556.07 233.98 542.93 C 225.29 545.49 215.87 546.10 207.11 543.58 C 203.92 542.80 201.50 538.61 203.72 535.77 C 205.06 534.06 207.34 535.14 209.11 535.32 C 214.20 536.46 219.50 536.31 224.55 535.05 C 215.33 526.07 205.59 517.50 197.72 507.25 C 195.86 505.39 196.21 501.49 199.08 500.93 C 202.08 500.26 204.13 503.04 205.89 504.98 C 213.69 514.47 222.76 522.81 231.89 531.00 C 233.92 523.47 233.80 515.58 232.86 507.90 C 232.80 505.99 232.03 503.24 234.13 502.12 C 237.48 500.46 241.14 503.75 241.49 507.09 C 243.00 517.30 242.75 527.83 240.03 537.82 C 256.46 551.05 273.93 563.03 292.43 573.19 C 293.44 561.01 291.75 548.82 289.58 536.86 C 288.95 534.81 289.49 532.04 291.96 531.63 C 295.02 531.29 297.64 533.91 298.11 536.80 C 300.82 550.26 302.41 564.07 301.25 577.80 C 316.06 585.68 331.73 591.91 347.85 596.55 C 363.16 600.72 379.09 603.46 395.01 602.54 C 388.77 599.50 382.63 596.23 377.06 592.07 C 371.05 587.80 366.13 582.27 360.87 577.16 C 345.44 559.85 335.11 538.72 326.86 517.23 C 323.07 507.22 317.28 497.98 309.87 490.25 C 304.01 485.21 297.08 480.22 288.96 480.55 C 282.31 480.53 276.87 484.85 272.20 489.09 C 267.22 481.79 262.05 474.55 255.83 468.25 C 249.53 463.09 242.62 457.40 234.08 457.15 C 226.63 456.85 220.14 461.53 215.31 466.78 C 210.69 462.39 206.95 457.12 201.85 453.24 C 191.67 444.45 180.39 435.83 166.89 433.17 C 159.02 431.53 150.37 433.97 144.94 439.98 M 640.90 434.21 C 629.25 437.83 619.36 445.36 610.26 453.27 C 605.18 457.14 601.45 462.39 596.85 466.77 C 591.99 461.53 585.48 456.83 578.00 457.15 C 569.48 457.42 562.57 463.12 556.29 468.27 C 550.12 474.57 544.89 481.73 540.03 489.07 C 536.37 486.01 532.66 482.68 527.99 481.30 C 522.27 479.61 516.01 480.88 510.95 483.88 C 505.89 486.95 501.13 490.66 497.70 495.55 C 490.70 503.73 486.49 513.76 482.70 523.72 C 473.66 545.91 462.03 567.80 444.19 584.20 C 436.55 592.11 426.99 597.83 417.13 602.54 C 431.71 603.40 446.32 601.13 460.44 597.58 C 477.94 592.97 494.89 586.27 510.90 577.81 C 509.75 564.41 511.29 550.95 513.81 537.80 C 514.11 534.61 516.58 531.35 520.06 531.60 C 523.17 532.06 523.02 535.60 522.41 537.92 C 520.24 549.52 518.78 561.38 519.72 573.20 C 538.20 563.01 555.70 551.06 572.12 537.82 C 569.39 527.85 569.15 517.35 570.65 507.16 C 570.99 504.78 572.55 502.51 574.96 501.87 C 577.01 501.02 579.85 502.57 579.44 505.00 C 578.70 513.64 577.84 522.49 580.24 530.98 C 588.46 523.66 596.59 516.17 603.81 507.85 C 606.05 505.48 607.83 502.38 610.91 501.01 C 614.25 499.58 617.13 504.06 614.80 506.65 C 607.00 517.26 596.93 525.89 587.57 535.06 C 592.58 536.30 597.85 536.46 602.91 535.34 C 604.69 535.20 606.90 534.05 608.33 535.67 C 610.54 538.25 608.58 542.33 605.65 543.37 C 596.72 546.19 587.02 545.49 578.11 542.94 C 561.82 556.14 544.47 568.01 526.39 578.62 C 534.21 581.69 542.53 583.59 550.96 583.54 C 552.90 583.70 555.68 583.09 556.70 585.31 C 558.08 588.80 554.68 592.88 551.05 592.69 C 538.66 592.92 526.31 589.93 515.11 584.67 C 500.94 591.83 486.37 598.36 471.20 603.14 C 454.69 608.45 437.49 611.38 420.17 612.06 C 446.07 621.93 473.29 628.73 500.97 630.81 C 509.63 631.21 518.31 631.04 526.98 630.96 C 546.35 629.79 565.91 625.59 582.93 615.98 C 589.87 612.17 596.00 607.10 602.01 602.00 C 608.41 594.98 615.09 586.94 615.57 577.00 C 615.96 572.00 613.64 567.41 610.97 563.36 C 618.77 560.33 626.41 556.34 632.27 550.24 C 639.76 543.33 646.06 534.27 647.26 523.93 C 647.91 519.20 646.03 514.67 643.44 510.83 C 651.60 501.56 658.89 491.45 664.42 480.39 C 669.04 471.07 672.80 460.68 671.49 450.13 C 670.36 444.70 667.84 438.95 662.67 436.28 C 656.35 431.88 648.01 432.01 640.90 434.21 M 1169.54 501.79 C 1158.40 503.52 1147.63 508.55 1139.96 516.93 C 1126.25 531.58 1123.57 554.52 1131.22 572.73 C 1135.87 583.72 1144.91 592.71 1155.91 597.32 C 1166.03 601.57 1177.30 602.90 1188.16 601.48 C 1200.95 599.82 1213.59 593.98 1221.71 583.73 C 1237.05 564.46 1236.01 533.88 1218.85 516.05 C 1206.18 503.32 1186.92 498.96 1169.54 501.79 M 1492.59 501.78 C 1479.51 503.71 1467.01 510.53 1459.25 521.39 C 1446.94 538.89 1446.87 564.16 1459.25 581.66 C 1467.62 593.54 1481.69 600.29 1495.94 601.67 C 1513.69 603.59 1533.30 598.04 1544.74 583.69 C 1560.19 564.25 1558.98 533.29 1541.38 515.58 C 1528.70 503.22 1509.75 499.01 1492.59 501.78 M 2187.59 501.78 C 2173.38 503.85 2159.83 511.81 2152.37 524.26 C 2140.89 543.38 2142.74 570.31 2158.40 586.61 C 2170.37 599.29 2189.02 603.60 2205.90 601.52 C 2220.42 599.77 2234.74 592.34 2242.61 579.70 C 2254.78 560.38 2252.88 532.78 2236.92 516.13 C 2224.27 503.35 2204.99 498.96 2187.59 501.78 M 1060.04 507.90 C 1059.92 535.94 1060.07 563.98 1059.97 592.02 C 1059.90 594.13 1060.19 596.24 1060.69 598.30 C 1067.35 599.74 1074.24 598.66 1081.01 599.03 C 1083.59 599.03 1087.68 599.33 1088.38 596.03 C 1088.69 586.70 1088.40 577.34 1088.50 568.01 C 1097.71 567.94 1106.92 568.08 1116.13 567.96 C 1117.92 568.04 1119.81 566.96 1119.92 565.01 C 1120.27 560.69 1119.96 556.35 1120.09 552.03 C 1119.97 550.00 1120.39 547.67 1119.03 545.96 C 1117.61 544.84 1115.71 545.04 1114.05 544.98 C 1105.53 545.02 1097.01 544.99 1088.50 545.00 C 1088.49 539.72 1088.53 534.44 1088.45 529.16 C 1100.31 529.16 1112.18 529.28 1124.04 529.12 C 1126.36 529.42 1127.55 527.03 1127.53 525.05 C 1127.61 519.36 1127.61 513.66 1127.53 507.96 C 1127.56 506.03 1126.31 503.67 1124.06 503.99 C 1104.01 503.89 1083.95 503.91 1063.90 503.98 C 1061.64 503.78 1059.81 505.66 1060.04 507.90 M 1240.49 508.99 C 1240.53 537.67 1240.45 566.36 1240.53 595.04 C 1240.23 597.50 1242.73 599.02 1244.93 598.96 C 1250.61 599.11 1256.30 598.92 1262.00 599.03 C 1263.98 598.92 1266.23 599.29 1267.99 598.09 C 1269.15 596.65 1268.94 594.70 1269.03 592.98 C 1268.98 584.99 1269.00 577.00 1269.00 569.01 C 1273.23 569.12 1277.50 568.68 1281.71 569.25 C 1287.79 578.64 1293.23 588.46 1299.22 597.91 C 1303.37 600.06 1308.46 598.56 1312.99 599.01 C 1316.30 598.68 1320.88 600.14 1323.12 596.91 C 1323.72 593.14 1323.96 589.02 1322.84 585.35 C 1318.60 578.03 1313.65 571.15 1309.35 563.87 C 1313.32 561.48 1317.33 558.90 1320.00 555.01 C 1329.28 543.18 1327.41 524.63 1316.51 514.46 C 1308.74 506.88 1297.53 503.98 1286.92 503.95 C 1272.60 503.96 1258.28 503.86 1243.97 503.99 C 1241.15 503.61 1240.34 506.80 1240.49 508.99 M 1366.70 504.74 C 1365.85 509.78 1365.42 515.24 1366.77 520.19 C 1375.96 535.57 1385.77 550.61 1394.86 566.04 C 1395.60 576.76 1394.06 587.65 1395.68 598.29 C 1402.34 599.75 1409.23 598.65 1415.99 599.03 C 1418.58 599.03 1422.68 599.34 1423.38 596.03 C 1423.69 586.68 1423.39 577.31 1423.49 567.96 C 1423.33 564.90 1425.68 562.57 1427.08 560.07 C 1434.65 547.61 1442.23 535.15 1449.82 522.71 C 1450.83 520.97 1452.03 519.18 1451.92 517.08 C 1451.97 512.96 1452.26 508.77 1451.29 504.73 C 1445.61 503.36 1439.73 504.24 1433.97 503.98 C 1431.89 504.13 1429.06 503.67 1427.76 505.70 C 1421.53 517.04 1415.44 528.47 1409.06 539.73 C 1402.72 528.45 1396.29 517.22 1389.85 506.00 C 1388.50 503.55 1385.33 504.05 1383.01 503.97 C 1377.57 504.23 1372.03 503.38 1366.70 504.74 M 1562.53 507.94 C 1562.45 524.94 1562.51 541.95 1562.51 558.95 C 1562.46 571.97 1567.86 585.44 1578.51 593.33 C 1592.26 603.52 1611.80 604.72 1627.05 597.19 C 1637.30 592.20 1644.93 582.45 1647.63 571.41 C 1649.97 563.14 1649.08 554.49 1649.25 546.02 C 1649.16 533.06 1649.42 520.09 1649.13 507.15 C 1648.72 503.67 1644.54 503.90 1641.96 503.97 C 1635.21 504.32 1628.36 503.29 1621.71 504.67 C 1620.59 508.69 1621.06 512.89 1621.00 517.00 C 1620.98 530.66 1621.02 544.32 1620.99 557.98 C 1621.04 563.51 1619.48 569.42 1615.23 573.22 C 1610.40 578.07 1601.68 577.92 1596.88 573.15 C 1592.68 569.36 1590.95 563.55 1591.00 558.04 C 1590.99 544.37 1591.00 530.69 1591.00 517.02 C 1590.93 512.91 1591.36 508.73 1590.32 504.70 C 1583.32 503.24 1576.10 504.34 1569.01 503.97 C 1566.35 503.72 1562.27 504.44 1562.53 507.94 M 1848.49 508.99 C 1848.50 537.32 1848.50 565.64 1848.49 593.96 C 1848.34 596.12 1849.10 599.34 1851.90 599.01 C 1867.92 599.14 1883.95 599.03 1899.97 599.05 C 1910.13 599.04 1920.97 596.61 1928.52 589.40 C 1939.70 578.73 1938.03 557.84 1925.05 549.35 C 1935.46 541.19 1936.06 524.41 1927.25 514.84 C 1919.88 506.84 1908.55 503.92 1897.99 503.94 C 1882.65 503.97 1867.30 503.86 1851.96 503.99 C 1849.14 503.61 1848.33 506.81 1848.49 508.99 M 1938.74 504.73 C 1937.85 509.77 1937.41 515.26 1938.78 520.21 C 1947.97 535.58 1957.78 550.62 1966.87 566.05 C 1967.60 576.77 1966.05 587.66 1967.68 598.30 C 1974.34 599.75 1981.23 598.65 1988.00 599.03 C 1990.58 599.03 1994.71 599.33 1995.38 596.00 C 1995.88 585.92 1995.02 575.76 1995.77 565.72 C 2004.49 550.87 2013.67 536.26 2022.54 521.49 C 2024.79 518.09 2023.71 513.82 2023.97 510.00 C 2023.92 507.95 2024.14 504.70 2021.46 504.28 C 2016.32 503.63 2011.11 504.16 2005.95 503.98 C 2003.87 504.13 2001.08 503.67 1999.77 505.67 C 1993.54 517.02 1987.44 528.46 1981.06 539.73 C 1974.73 528.47 1968.30 517.25 1961.88 506.04 C 1960.52 503.53 1957.29 504.05 1954.94 503.97 C 1949.53 504.22 1944.03 503.39 1938.74 504.73 M 2061.71 504.73 C 2060.84 509.77 2060.42 515.25 2061.78 520.20 C 2070.96 535.58 2080.80 550.63 2089.87 566.06 C 2090.60 576.78 2089.04 587.67 2090.69 598.31 C 2097.37 599.73 2104.27 598.66 2111.06 599.03 C 2113.62 599.04 2117.72 599.30 2118.38 596.00 C 2118.69 586.67 2118.39 577.31 2118.49 567.97 C 2118.33 564.89 2120.69 562.55 2122.11 560.03 C 2129.67 547.57 2137.25 535.13 2144.83 522.68 C 2145.83 520.97 2147.01 519.19 2146.92 517.11 C 2146.97 512.98 2147.26 508.78 2146.29 504.73 C 2140.61 503.36 2134.73 504.24 2128.97 503.98 C 2126.88 504.14 2124.07 503.66 2122.77 505.68 C 2116.53 517.03 2110.44 528.47 2104.06 539.73 C 2097.72 528.45 2091.28 517.21 2084.84 505.98 C 2083.47 503.53 2080.29 504.06 2077.97 503.97 C 2072.55 504.22 2067.03 503.39 2061.71 504.73 M 2260.25 504.30 C 2258.55 504.71 2257.30 506.25 2257.53 508.04 C 2257.46 525.02 2257.51 542.02 2257.51 559.01 C 2257.56 568.77 2260.41 578.70 2266.51 586.43 C 2277.36 600.43 2297.30 604.89 2313.91 600.29 C 2326.92 597.02 2337.98 586.85 2341.89 573.96 C 2345.03 564.97 2344.13 555.35 2344.25 546.02 C 2344.21 533.35 2344.31 520.68 2344.21 508.01 C 2344.44 505.71 2342.30 503.86 2340.11 504.04 C 2333.07 504.01 2326.03 503.85 2319.02 504.12 C 2316.99 504.15 2315.93 506.08 2316.04 507.90 C 2315.94 522.60 2316.02 537.30 2316.01 552.00 C 2315.95 557.13 2316.39 562.51 2314.31 567.35 C 2312.17 572.66 2306.97 577.09 2301.02 576.78 C 2294.78 576.93 2289.49 572.18 2287.46 566.55 C 2285.37 561.28 2286.12 555.50 2286.00 549.98 C 2285.96 535.95 2286.06 521.93 2285.96 507.92 C 2286.18 505.62 2284.33 503.80 2282.06 504.04 C 2274.80 504.12 2267.47 503.62 2260.25 504.30 M 1739.05 507.03 C 1730.86 515.15 1723.39 524.34 1718.89 535.05 C 1714.68 544.68 1715.14 556.08 1719.47 565.58 C 1722.53 572.27 1728.73 577.16 1735.81 579.00 C 1735.92 583.66 1735.54 588.35 1736.00 593.00 C 1736.86 596.07 1742.02 595.34 1741.87 592.09 C 1742.08 576.71 1741.82 561.32 1741.98 545.93 C 1741.87 544.52 1742.44 542.77 1744.03 542.45 C 1746.16 541.49 1748.33 543.81 1747.97 545.94 C 1748.07 557.04 1747.94 568.14 1748.02 579.24 C 1752.89 578.02 1757.63 575.81 1761.05 572.03 C 1767.07 565.63 1769.02 556.51 1768.83 547.97 C 1768.81 539.75 1765.16 532.09 1760.89 525.26 C 1756.22 518.08 1750.70 511.40 1744.31 505.71 C 1742.56 504.05 1740.30 505.62 1739.05 507.03 Z" />
<path fill="#006242" opacity="1.00" d=" M 1948.07 187.11 C 1964.42 184.49 1982.47 188.72 1994.20 200.88 C 2008.51 215.37 2011.94 238.03 2006.44 257.13 C 2002.38 271.58 1991.38 283.99 1977.21 289.15 C 1958.41 296.08 1935.15 292.82 1920.83 278.18 C 1905.16 262.31 1902.37 236.77 1910.47 216.56 C 1916.61 200.94 1931.50 189.48 1948.07 187.11 Z" />
<path fill="#006242" opacity="1.00" d=" M 1506.37 291.19 C 1506.36 256.73 1506.36 222.27 1506.37 187.81 C 1520.79 188.28 1535.61 186.28 1549.64 190.58 C 1563.99 194.60 1576.47 205.40 1581.48 219.57 C 1587.13 235.54 1586.07 254.38 1576.81 268.80 C 1570.41 278.78 1559.90 285.66 1548.56 288.74 C 1534.83 292.61 1520.43 290.73 1506.37 291.19 Z" />
<path fill="#006242" opacity="1.00" d=" M 1072.50 266.99 C 1080.85 241.77 1089.17 216.54 1097.53 191.31 C 1105.82 216.58 1114.37 241.76 1122.73 267.00 C 1105.98 267.00 1089.24 267.01 1072.50 266.99 Z" />
<path fill="#006242" opacity="1.00" d=" M 1375.47 191.30 C 1383.89 216.53 1392.33 241.76 1400.73 267.00 C 1383.98 267.00 1367.24 267.01 1350.50 266.99 C 1358.81 241.76 1367.25 216.57 1375.47 191.30 Z" />
<path fill="#006242" opacity="1.00" d=" M 1499.06 504.13 C 1515.06 503.08 1532.28 508.53 1542.45 521.46 C 1557.24 540.17 1555.70 570.55 1537.67 586.65 C 1524.17 598.76 1504.22 601.42 1487.08 596.95 C 1474.05 593.59 1462.49 584.39 1457.18 571.92 C 1449.92 554.97 1452.11 533.57 1464.62 519.60 C 1473.26 509.85 1486.22 504.81 1499.06 504.13 M 1497.47 523.57 C 1489.37 524.88 1482.00 530.16 1478.49 537.62 C 1473.38 548.37 1474.48 562.37 1482.55 571.41 C 1491.58 581.38 1508.12 582.56 1518.97 574.94 C 1533.85 564.27 1533.82 538.73 1518.96 528.07 C 1512.81 523.65 1504.84 522.35 1497.47 523.57 Z" />
<path fill="#006242" opacity="1.00" d=" M 2194.15 504.12 C 2209.43 503.19 2225.80 508.03 2236.08 519.85 C 2252.02 538.00 2251.26 568.85 2233.71 585.69 C 2221.80 597.18 2204.02 600.75 2188.05 598.20 C 2173.72 596.20 2160.08 587.65 2153.45 574.57 C 2144.54 557.03 2146.54 533.73 2160.10 519.07 C 2168.77 509.62 2181.52 504.79 2194.15 504.12 M 2192.43 523.58 C 2184.36 524.89 2177.03 530.15 2173.52 537.57 C 2168.37 548.36 2169.47 562.45 2177.63 571.49 C 2186.68 581.40 2203.21 582.54 2214.03 574.90 C 2228.84 564.22 2228.80 538.74 2213.98 528.08 C 2207.82 523.65 2199.82 522.34 2192.43 523.58 Z" />
<path fill="#006242" opacity="1.00" d=" M 1369.11 507.00 C 1375.06 507.00 1381.01 507.00 1386.96 507.00 C 1394.36 520.01 1401.79 533.00 1409.17 546.02 C 1416.26 533.04 1423.44 520.11 1430.43 507.08 C 1436.57 506.92 1442.73 507.03 1448.89 507.00 C 1448.72 510.87 1449.30 514.84 1448.57 518.65 C 1439.45 534.33 1429.53 549.58 1420.52 565.32 C 1420.18 575.53 1420.49 585.77 1420.39 596.00 C 1412.92 596.00 1405.46 596.00 1398.00 596.00 C 1397.88 585.69 1398.23 575.37 1397.84 565.07 C 1388.69 549.41 1378.65 534.23 1369.41 518.61 C 1368.70 514.80 1369.26 510.86 1369.11 507.00 Z" />
<path fill="#006242" opacity="1.00" d=" M 1565.61 507.00 C 1573.07 507.00 1580.53 507.00 1588.00 507.00 C 1587.99 523.34 1588.02 539.68 1587.98 556.02 C 1587.67 562.28 1589.05 568.87 1593.19 573.75 C 1598.01 579.81 1607.18 581.66 1613.97 577.92 C 1620.73 574.35 1623.99 566.40 1623.97 559.04 C 1624.04 541.70 1623.98 524.35 1624.00 507.00 C 1631.39 507.00 1638.78 507.00 1646.18 507.00 C 1646.19 523.33 1646.17 539.65 1646.19 555.98 C 1646.45 563.50 1645.35 571.21 1641.98 578.01 C 1637.53 587.35 1628.84 594.36 1618.92 597.16 C 1604.45 601.31 1587.29 598.51 1576.51 587.49 C 1569.36 580.28 1565.70 570.08 1565.63 560.02 C 1565.58 542.35 1565.62 524.67 1565.61 507.00 Z" />
<path fill="#006242" opacity="1.00" d=" M 2064.11 507.00 C 2070.06 507.00 2076.01 507.00 2081.96 507.00 C 2089.36 520.01 2096.79 533.00 2104.17 546.02 C 2111.27 533.04 2118.44 520.10 2125.44 507.07 C 2131.58 506.93 2137.73 507.03 2143.89 507.00 C 2143.57 511.06 2144.63 515.41 2143.26 519.30 C 2134.37 534.05 2125.38 548.75 2116.43 563.46 C 2115.74 564.51 2115.25 565.68 2115.39 566.96 C 2115.37 576.64 2115.40 586.32 2115.39 596.00 C 2107.92 596.00 2100.46 596.00 2093.00 596.00 C 2092.87 585.69 2093.24 575.36 2092.84 565.06 C 2083.68 549.40 2073.64 534.21 2064.40 518.59 C 2063.71 514.79 2064.25 510.85 2064.11 507.00 Z" />
<path fill="#006242" opacity="1.00" d=" M 2260.61 507.00 C 2268.07 507.00 2275.53 507.00 2283.00 507.00 C 2282.99 523.32 2283.02 539.65 2282.98 555.97 C 2282.79 561.08 2283.49 566.36 2286.15 570.82 C 2289.22 576.47 2295.54 580.32 2302.05 579.82 C 2308.36 579.63 2314.08 575.34 2316.64 569.65 C 2319.55 563.87 2318.95 557.25 2319.00 550.99 C 2318.99 536.32 2319.00 521.66 2319.00 507.00 C 2326.39 507.00 2333.78 507.00 2341.18 507.00 C 2341.18 521.66 2341.18 536.32 2341.18 550.98 C 2341.14 557.02 2341.53 563.15 2340.09 569.07 C 2337.87 579.67 2330.93 589.26 2321.24 594.21 C 2307.49 601.21 2289.84 600.62 2276.92 592.02 C 2266.42 585.04 2260.61 572.38 2260.63 559.95 C 2260.58 542.30 2260.62 524.65 2260.61 507.00 Z" />
<path fill="#006242" opacity="1.00" d=" M 1174.44 526.67 C 1180.54 525.66 1187.17 526.23 1192.57 529.48 C 1207.69 538.39 1207.97 563.78 1193.18 573.13 C 1187.88 576.61 1181.20 577.32 1175.04 576.43 C 1166.49 575.12 1159.02 568.53 1156.68 560.20 C 1155.13 554.76 1155.12 548.89 1156.52 543.42 C 1158.72 535.06 1165.88 528.19 1174.44 526.67 Z" />
<path fill="#006242" opacity="1.00" d=" M 1497.46 526.67 C 1503.55 525.66 1510.17 526.24 1515.55 529.47 C 1530.70 538.38 1530.97 563.82 1516.15 573.16 C 1510.88 576.59 1504.28 577.30 1498.17 576.46 C 1489.60 575.18 1482.09 568.62 1479.71 560.29 C 1478.13 554.83 1478.11 548.94 1479.51 543.44 C 1481.71 535.07 1488.89 528.18 1497.46 526.67 Z" />
<path fill="#006242" opacity="1.00" d=" M 2192.45 526.67 C 2198.78 525.62 2205.70 526.28 2211.18 529.87 C 2225.96 539.25 2225.71 564.70 2210.51 573.56 C 2205.33 576.66 2199.01 577.26 2193.14 576.45 C 2184.56 575.16 2177.05 568.58 2174.69 560.23 C 2173.13 554.77 2173.11 548.88 2174.53 543.39 C 2176.73 535.04 2183.90 528.19 2192.45 526.67 Z" />
<path fill="#006242" opacity="1.00" d=" M 1269.00 526.69 C 1275.02 526.82 1281.07 526.39 1287.08 526.95 C 1292.21 527.47 1297.94 531.30 1297.73 537.00 C 1298.06 542.36 1292.83 546.35 1287.96 547.10 C 1281.68 547.93 1275.31 547.31 1269.00 547.50 C 1269.00 540.56 1268.99 533.63 1269.00 526.69 Z" />
<path fill="#006242" opacity="1.00" d=" M 1877.00 526.69 C 1883.31 526.75 1889.63 526.57 1895.95 526.77 C 1899.04 526.85 1902.55 527.84 1904.34 530.58 C 1907.19 535.74 1900.37 539.48 1895.96 539.19 C 1889.63 539.35 1883.31 539.19 1877.00 539.24 C 1876.99 535.06 1876.99 530.87 1877.00 526.69 Z" />
<path fill="#006242" opacity="1.00" d=" M 1877.00 560.00 C 1883.68 560.05 1890.37 559.90 1897.06 560.05 C 1900.40 560.10 1903.89 561.32 1906.07 563.98 C 1907.91 566.47 1908.17 570.45 1905.78 572.70 C 1903.37 575.53 1899.50 576.27 1895.98 576.29 C 1889.65 576.36 1883.32 576.28 1877.00 576.31 C 1876.99 570.87 1876.99 565.43 1877.00 560.00 Z" />
</g>
<g id="#eaf7feff">
</g>
</svg>
